<svg width="25" height="24" viewBox="0 0 25 24" fill="none" xmlns="http://www.w3.org/2000/svg">
<g clip-path="url(#clip0_926_14040)">
<path d="M10.3687 4.24002C11.0571 4.0789 11.7618 3.99836 12.4688 4.00003C19.4688 4.00003 23.4688 12 23.4688 12C22.8617 13.1356 22.1378 14.2048 21.3088 15.19M14.5887 14.12C14.3141 14.4148 13.9829 14.6512 13.6149 14.8151C13.2469 14.9791 12.8497 15.0673 12.4468 15.0744C12.044 15.0815 11.6439 15.0074 11.2704 14.8565C10.8968 14.7056 10.5575 14.4811 10.2726 14.1962C9.98772 13.9113 9.76314 13.572 9.61226 13.1984C9.46137 12.8249 9.38728 12.4247 9.39438 12.0219C9.40149 11.6191 9.48966 11.2219 9.65363 10.8539C9.81759 10.4859 10.054 10.1547 10.3488 9.88003M18.4088 17.94C16.6993 19.243 14.6179 19.9649 12.4688 20C5.46875 20 1.46875 12 1.46875 12C2.71264 9.68192 4.43789 7.65663 6.52875 6.06003L18.4088 17.94Z" stroke="#000718" stroke-width="2" stroke-linecap="round" stroke-linejoin="round"/>
<path d="M1.46875 1L23.4688 23" stroke="#000718" stroke-width="2" stroke-linecap="round" stroke-linejoin="round"/>
</g>
<defs>
<clipPath id="clip0_926_14040">
<rect width="24" height="24" fill="white" transform="translate(0.46875)"/>
</clipPath>
</defs>
</svg>
